<svg id="visual" viewBox="0 0 900 600" width="900" height="600" xmlns="http://www.w3.org/2000/svg" xmlns:xlink="http://www.w3.org/1999/xlink" version="1.1"><path d="M0 312L21.5 330C43 348 86 384 128.8 410.7C171.7 437.3 214.3 454.7 257.2 454C300 453.3 343 434.7 385.8 427.2C428.7 419.7 471.3 423.3 514.2 410C557 396.7 600 366.3 642.8 365.2C685.7 364 728.3 392 771.2 401.7C814 411.3 857 402.7 878.5 398.3L900 394L900 601L878.5 601C857 601 814 601 771.2 601C728.3 601 685.7 601 642.8 601C600 601 557 601 514.2 601C471.3 601 428.7 601 385.8 601C343 601 300 601 257.2 601C214.3 601 171.7 601 128.8 601C86 601 43 601 21.5 601L0 601Z" fill="#03182B" stroke-linecap="round" stroke-linejoin="miter"></path></svg>